<mxfile host="app.diagrams.net" modified="2023-10-18T12:41:24.369Z" agent="Mozilla/5.0 (Macintosh; Intel Mac OS X 10_15_7) AppleWebKit/537.36 (KHTML, like Gecko) Chrome/118.0.0.0 Safari/537.36" etag="_yclE056A5qQwMr14m97" version="21.8.0" type="github">
  <diagram name="第 1 页" id="vyt3zkPWfdMzOAWHLXr0">
    <mxGraphModel dx="2074" dy="1120" grid="1" gridSize="10" guides="1" tooltips="1" connect="1" arrows="1" fold="1" page="1" pageScale="1" pageWidth="4681" pageHeight="3300" math="0" shadow="0">
      <root>
        <mxCell id="0" />
        <mxCell id="1" parent="0" />
        <mxCell id="nDfJRBq8Fqmn5yMmQ9gc-88" value="" style="rounded=1;whiteSpace=wrap;html=1;fillColor=#dde8f8;strokeColor=#6c8ebf;" vertex="1" parent="1">
          <mxGeometry x="400" y="590" width="1410" height="865" as="geometry" />
        </mxCell>
        <mxCell id="nDfJRBq8Fqmn5yMmQ9gc-7" value="" style="edgeStyle=orthogonalEdgeStyle;rounded=0;orthogonalLoop=1;jettySize=auto;html=1;" edge="1" parent="1" source="nDfJRBq8Fqmn5yMmQ9gc-1" target="nDfJRBq8Fqmn5yMmQ9gc-6">
          <mxGeometry relative="1" as="geometry" />
        </mxCell>
        <mxCell id="nDfJRBq8Fqmn5yMmQ9gc-8" value="是非经销商或者是有权限的小二" style="edgeLabel;html=1;align=center;verticalAlign=middle;resizable=0;points=[];" vertex="1" connectable="0" parent="nDfJRBq8Fqmn5yMmQ9gc-7">
          <mxGeometry x="-0.12" y="-3" relative="1" as="geometry">
            <mxPoint as="offset" />
          </mxGeometry>
        </mxCell>
        <mxCell id="nDfJRBq8Fqmn5yMmQ9gc-104" value="" style="edgeStyle=orthogonalEdgeStyle;rounded=0;orthogonalLoop=1;jettySize=auto;html=1;" edge="1" parent="1" source="nDfJRBq8Fqmn5yMmQ9gc-1" target="nDfJRBq8Fqmn5yMmQ9gc-103">
          <mxGeometry relative="1" as="geometry" />
        </mxCell>
        <mxCell id="nDfJRBq8Fqmn5yMmQ9gc-105" value="提报失败" style="edgeLabel;html=1;align=center;verticalAlign=middle;resizable=0;points=[];" vertex="1" connectable="0" parent="nDfJRBq8Fqmn5yMmQ9gc-104">
          <mxGeometry x="-0.0514" y="3" relative="1" as="geometry">
            <mxPoint as="offset" />
          </mxGeometry>
        </mxCell>
        <mxCell id="nDfJRBq8Fqmn5yMmQ9gc-1" value="&lt;font style=&quot;font-size: 14px;&quot;&gt;权限校验&lt;/font&gt;" style="rhombus;whiteSpace=wrap;html=1;" vertex="1" parent="1">
          <mxGeometry x="978.74" y="178" width="80" height="70" as="geometry" />
        </mxCell>
        <mxCell id="nDfJRBq8Fqmn5yMmQ9gc-109" value="" style="edgeStyle=orthogonalEdgeStyle;rounded=0;orthogonalLoop=1;jettySize=auto;html=1;" edge="1" parent="1" source="nDfJRBq8Fqmn5yMmQ9gc-6" target="nDfJRBq8Fqmn5yMmQ9gc-108">
          <mxGeometry relative="1" as="geometry" />
        </mxCell>
        <mxCell id="nDfJRBq8Fqmn5yMmQ9gc-110" value="否" style="edgeLabel;html=1;align=center;verticalAlign=middle;resizable=0;points=[];" vertex="1" connectable="0" parent="nDfJRBq8Fqmn5yMmQ9gc-109">
          <mxGeometry x="-0.0713" relative="1" as="geometry">
            <mxPoint as="offset" />
          </mxGeometry>
        </mxCell>
        <mxCell id="nDfJRBq8Fqmn5yMmQ9gc-6" value="&lt;font style=&quot;font-size: 14px;&quot;&gt;红码商品&lt;br&gt;校验&lt;/font&gt;" style="rhombus;whiteSpace=wrap;html=1;" vertex="1" parent="1">
          <mxGeometry x="969.99" y="298" width="100" height="80" as="geometry" />
        </mxCell>
        <mxCell id="nDfJRBq8Fqmn5yMmQ9gc-112" value="" style="edgeStyle=orthogonalEdgeStyle;rounded=0;orthogonalLoop=1;jettySize=auto;html=1;" edge="1" parent="1" source="nDfJRBq8Fqmn5yMmQ9gc-11" target="nDfJRBq8Fqmn5yMmQ9gc-12">
          <mxGeometry relative="1" as="geometry" />
        </mxCell>
        <mxCell id="nDfJRBq8Fqmn5yMmQ9gc-11" value="&lt;font style=&quot;&quot;&gt;&lt;font style=&quot;font-size: 14px;&quot;&gt;佣金校验&lt;/font&gt;&lt;br&gt;&lt;/font&gt;" style="rhombus;whiteSpace=wrap;html=1;" vertex="1" parent="1">
          <mxGeometry x="975.61" y="508" width="88.75" height="70" as="geometry" />
        </mxCell>
        <mxCell id="nDfJRBq8Fqmn5yMmQ9gc-113" value="" style="edgeStyle=orthogonalEdgeStyle;rounded=0;orthogonalLoop=1;jettySize=auto;html=1;" edge="1" parent="1" source="nDfJRBq8Fqmn5yMmQ9gc-12" target="nDfJRBq8Fqmn5yMmQ9gc-13">
          <mxGeometry relative="1" as="geometry" />
        </mxCell>
        <mxCell id="nDfJRBq8Fqmn5yMmQ9gc-12" value="&lt;font style=&quot;font-size: 14px;&quot;&gt;根据itemId去scm平台查询自营商品&lt;/font&gt;" style="rounded=1;whiteSpace=wrap;html=1;" vertex="1" parent="1">
          <mxGeometry x="959.74" y="610" width="120" height="60" as="geometry" />
        </mxCell>
        <mxCell id="nDfJRBq8Fqmn5yMmQ9gc-119" value="" style="edgeStyle=orthogonalEdgeStyle;rounded=0;orthogonalLoop=1;jettySize=auto;html=1;entryX=0.5;entryY=0;entryDx=0;entryDy=0;" edge="1" parent="1" source="nDfJRBq8Fqmn5yMmQ9gc-13" target="nDfJRBq8Fqmn5yMmQ9gc-17">
          <mxGeometry relative="1" as="geometry">
            <mxPoint x="1020" y="900" as="targetPoint" />
            <Array as="points">
              <mxPoint x="1020" y="780" />
              <mxPoint x="580" y="780" />
            </Array>
          </mxGeometry>
        </mxCell>
        <mxCell id="nDfJRBq8Fqmn5yMmQ9gc-121" value="" style="edgeStyle=orthogonalEdgeStyle;rounded=0;orthogonalLoop=1;jettySize=auto;html=1;" edge="1" parent="1" source="nDfJRBq8Fqmn5yMmQ9gc-13">
          <mxGeometry relative="1" as="geometry">
            <mxPoint x="840" y="880" as="targetPoint" />
            <Array as="points">
              <mxPoint x="1020" y="780" />
              <mxPoint x="840" y="780" />
            </Array>
          </mxGeometry>
        </mxCell>
        <mxCell id="nDfJRBq8Fqmn5yMmQ9gc-123" value="" style="edgeStyle=orthogonalEdgeStyle;rounded=0;orthogonalLoop=1;jettySize=auto;html=1;entryX=0.5;entryY=0;entryDx=0;entryDy=0;" edge="1" parent="1" target="nDfJRBq8Fqmn5yMmQ9gc-85">
          <mxGeometry relative="1" as="geometry">
            <mxPoint x="1020" y="780" as="sourcePoint" />
            <mxPoint x="1020" y="900" as="targetPoint" />
          </mxGeometry>
        </mxCell>
        <mxCell id="nDfJRBq8Fqmn5yMmQ9gc-125" value="" style="edgeStyle=orthogonalEdgeStyle;rounded=0;orthogonalLoop=1;jettySize=auto;html=1;entryX=0.5;entryY=0;entryDx=0;entryDy=0;" edge="1" parent="1" source="nDfJRBq8Fqmn5yMmQ9gc-13" target="nDfJRBq8Fqmn5yMmQ9gc-89">
          <mxGeometry relative="1" as="geometry">
            <mxPoint x="1020" y="900" as="targetPoint" />
            <Array as="points">
              <mxPoint x="1020" y="780" />
              <mxPoint x="1540" y="780" />
            </Array>
          </mxGeometry>
        </mxCell>
        <mxCell id="nDfJRBq8Fqmn5yMmQ9gc-129" value="" style="edgeStyle=orthogonalEdgeStyle;rounded=0;orthogonalLoop=1;jettySize=auto;html=1;" edge="1" parent="1" source="nDfJRBq8Fqmn5yMmQ9gc-13">
          <mxGeometry relative="1" as="geometry">
            <mxPoint x="1020" y="900" as="targetPoint" />
          </mxGeometry>
        </mxCell>
        <mxCell id="nDfJRBq8Fqmn5yMmQ9gc-131" value="" style="edgeStyle=orthogonalEdgeStyle;rounded=0;orthogonalLoop=1;jettySize=auto;html=1;" edge="1" parent="1" source="nDfJRBq8Fqmn5yMmQ9gc-13">
          <mxGeometry relative="1" as="geometry">
            <mxPoint x="1350" y="900" as="targetPoint" />
            <Array as="points">
              <mxPoint x="1020" y="780" />
              <mxPoint x="1350" y="780" />
            </Array>
          </mxGeometry>
        </mxCell>
        <mxCell id="nDfJRBq8Fqmn5yMmQ9gc-13" value="&lt;font style=&quot;font-size: 14px;&quot;&gt;验证商品卖家ID&lt;/font&gt;" style="rounded=1;whiteSpace=wrap;html=1;" vertex="1" parent="1">
          <mxGeometry x="960" y="690" width="120" height="60" as="geometry" />
        </mxCell>
        <mxCell id="nDfJRBq8Fqmn5yMmQ9gc-20" value="" style="edgeStyle=orthogonalEdgeStyle;rounded=0;orthogonalLoop=1;jettySize=auto;html=1;" edge="1" parent="1" source="nDfJRBq8Fqmn5yMmQ9gc-17" target="nDfJRBq8Fqmn5yMmQ9gc-18">
          <mxGeometry relative="1" as="geometry" />
        </mxCell>
        <mxCell id="nDfJRBq8Fqmn5yMmQ9gc-22" value="否" style="edgeLabel;html=1;align=center;verticalAlign=middle;resizable=0;points=[];" vertex="1" connectable="0" parent="nDfJRBq8Fqmn5yMmQ9gc-20">
          <mxGeometry x="-0.3833" y="2" relative="1" as="geometry">
            <mxPoint as="offset" />
          </mxGeometry>
        </mxCell>
        <mxCell id="nDfJRBq8Fqmn5yMmQ9gc-40" value="" style="edgeStyle=orthogonalEdgeStyle;rounded=0;orthogonalLoop=1;jettySize=auto;html=1;endArrow=none;endFill=0;" edge="1" parent="1" source="nDfJRBq8Fqmn5yMmQ9gc-17">
          <mxGeometry relative="1" as="geometry">
            <mxPoint x="700" y="1430" as="targetPoint" />
          </mxGeometry>
        </mxCell>
        <mxCell id="nDfJRBq8Fqmn5yMmQ9gc-41" value="是" style="edgeLabel;html=1;align=center;verticalAlign=middle;resizable=0;points=[];" vertex="1" connectable="0" parent="nDfJRBq8Fqmn5yMmQ9gc-40">
          <mxGeometry x="-0.8846" y="-2" relative="1" as="geometry">
            <mxPoint as="offset" />
          </mxGeometry>
        </mxCell>
        <mxCell id="nDfJRBq8Fqmn5yMmQ9gc-17" value="&lt;font style=&quot;font-size: 14px;&quot;&gt;用户为有&lt;br&gt;权限的小二&lt;/font&gt;" style="rhombus;whiteSpace=wrap;html=1;" vertex="1" parent="1">
          <mxGeometry x="530" y="870" width="100" height="100" as="geometry" />
        </mxCell>
        <mxCell id="nDfJRBq8Fqmn5yMmQ9gc-21" value="" style="edgeStyle=orthogonalEdgeStyle;rounded=0;orthogonalLoop=1;jettySize=auto;html=1;" edge="1" parent="1" source="nDfJRBq8Fqmn5yMmQ9gc-18" target="nDfJRBq8Fqmn5yMmQ9gc-19">
          <mxGeometry relative="1" as="geometry" />
        </mxCell>
        <mxCell id="nDfJRBq8Fqmn5yMmQ9gc-24" value="否" style="edgeLabel;html=1;align=center;verticalAlign=middle;resizable=0;points=[];" vertex="1" connectable="0" parent="nDfJRBq8Fqmn5yMmQ9gc-21">
          <mxGeometry x="-0.3833" y="2" relative="1" as="geometry">
            <mxPoint as="offset" />
          </mxGeometry>
        </mxCell>
        <mxCell id="nDfJRBq8Fqmn5yMmQ9gc-45" value="" style="edgeStyle=orthogonalEdgeStyle;rounded=0;orthogonalLoop=1;jettySize=auto;html=1;" edge="1" parent="1" source="nDfJRBq8Fqmn5yMmQ9gc-18">
          <mxGeometry relative="1" as="geometry">
            <mxPoint x="420" y="1060" as="targetPoint" />
          </mxGeometry>
        </mxCell>
        <mxCell id="nDfJRBq8Fqmn5yMmQ9gc-46" value="验证失败" style="edgeLabel;html=1;align=center;verticalAlign=middle;resizable=0;points=[];" vertex="1" connectable="0" parent="nDfJRBq8Fqmn5yMmQ9gc-45">
          <mxGeometry x="0.2128" y="-1" relative="1" as="geometry">
            <mxPoint as="offset" />
          </mxGeometry>
        </mxCell>
        <mxCell id="nDfJRBq8Fqmn5yMmQ9gc-18" value="&lt;font style=&quot;font-size: 14px;&quot;&gt;用户为经销商&lt;/font&gt;" style="rhombus;whiteSpace=wrap;html=1;" vertex="1" parent="1">
          <mxGeometry x="530" y="1010" width="100" height="100" as="geometry" />
        </mxCell>
        <mxCell id="nDfJRBq8Fqmn5yMmQ9gc-49" value="" style="edgeStyle=orthogonalEdgeStyle;rounded=0;orthogonalLoop=1;jettySize=auto;html=1;" edge="1" parent="1" source="nDfJRBq8Fqmn5yMmQ9gc-19">
          <mxGeometry relative="1" as="geometry">
            <mxPoint x="420" y="1200" as="targetPoint" />
          </mxGeometry>
        </mxCell>
        <mxCell id="nDfJRBq8Fqmn5yMmQ9gc-50" value="验证失败" style="edgeLabel;html=1;align=center;verticalAlign=middle;resizable=0;points=[];" vertex="1" connectable="0" parent="nDfJRBq8Fqmn5yMmQ9gc-49">
          <mxGeometry x="0.2301" y="4" relative="1" as="geometry">
            <mxPoint as="offset" />
          </mxGeometry>
        </mxCell>
        <mxCell id="nDfJRBq8Fqmn5yMmQ9gc-139" value="" style="edgeStyle=orthogonalEdgeStyle;rounded=0;orthogonalLoop=1;jettySize=auto;html=1;" edge="1" parent="1" source="nDfJRBq8Fqmn5yMmQ9gc-19">
          <mxGeometry relative="1" as="geometry">
            <mxPoint x="1036" y="1470" as="targetPoint" />
            <Array as="points">
              <mxPoint x="580" y="1430" />
              <mxPoint x="1036" y="1430" />
            </Array>
          </mxGeometry>
        </mxCell>
        <mxCell id="nDfJRBq8Fqmn5yMmQ9gc-19" value="&lt;font style=&quot;font-size: 14px;&quot;&gt;当前财年&lt;br&gt;签署合同&lt;/font&gt;" style="rhombus;whiteSpace=wrap;html=1;" vertex="1" parent="1">
          <mxGeometry x="530" y="1150" width="100" height="100" as="geometry" />
        </mxCell>
        <mxCell id="nDfJRBq8Fqmn5yMmQ9gc-165" value="" style="edgeStyle=orthogonalEdgeStyle;rounded=0;orthogonalLoop=1;jettySize=auto;html=1;" edge="1" parent="1" source="nDfJRBq8Fqmn5yMmQ9gc-25" target="nDfJRBq8Fqmn5yMmQ9gc-160">
          <mxGeometry relative="1" as="geometry" />
        </mxCell>
        <mxCell id="nDfJRBq8Fqmn5yMmQ9gc-25" value="插入或者更新DB" style="rounded=1;whiteSpace=wrap;html=1;" vertex="1" parent="1">
          <mxGeometry x="980.62" y="1470" width="114.38" height="40" as="geometry" />
        </mxCell>
        <mxCell id="nDfJRBq8Fqmn5yMmQ9gc-59" value="" style="edgeStyle=orthogonalEdgeStyle;rounded=0;orthogonalLoop=1;jettySize=auto;html=1;" edge="1" parent="1" source="nDfJRBq8Fqmn5yMmQ9gc-51" target="nDfJRBq8Fqmn5yMmQ9gc-58">
          <mxGeometry relative="1" as="geometry" />
        </mxCell>
        <mxCell id="nDfJRBq8Fqmn5yMmQ9gc-60" value="否" style="edgeLabel;html=1;align=center;verticalAlign=middle;resizable=0;points=[];" vertex="1" connectable="0" parent="nDfJRBq8Fqmn5yMmQ9gc-59">
          <mxGeometry x="0.3067" y="-2" relative="1" as="geometry">
            <mxPoint as="offset" />
          </mxGeometry>
        </mxCell>
        <mxCell id="nDfJRBq8Fqmn5yMmQ9gc-75" value="" style="edgeStyle=orthogonalEdgeStyle;rounded=0;orthogonalLoop=1;jettySize=auto;html=1;" edge="1" parent="1" source="nDfJRBq8Fqmn5yMmQ9gc-51" target="nDfJRBq8Fqmn5yMmQ9gc-74">
          <mxGeometry relative="1" as="geometry">
            <Array as="points">
              <mxPoint x="750" y="920" />
              <mxPoint x="750" y="1250" />
            </Array>
          </mxGeometry>
        </mxCell>
        <mxCell id="nDfJRBq8Fqmn5yMmQ9gc-76" value="是" style="edgeLabel;html=1;align=center;verticalAlign=middle;resizable=0;points=[];" vertex="1" connectable="0" parent="nDfJRBq8Fqmn5yMmQ9gc-75">
          <mxGeometry x="-0.8837" y="2" relative="1" as="geometry">
            <mxPoint as="offset" />
          </mxGeometry>
        </mxCell>
        <mxCell id="nDfJRBq8Fqmn5yMmQ9gc-51" value="用户是有&lt;br&gt;权限的小二" style="rhombus;whiteSpace=wrap;html=1;" vertex="1" parent="1">
          <mxGeometry x="800" y="880" width="80" height="80" as="geometry" />
        </mxCell>
        <mxCell id="nDfJRBq8Fqmn5yMmQ9gc-56" value="" style="edgeStyle=orthogonalEdgeStyle;rounded=0;orthogonalLoop=1;jettySize=auto;html=1;endArrow=none;endFill=0;" edge="1" parent="1" source="nDfJRBq8Fqmn5yMmQ9gc-52">
          <mxGeometry relative="1" as="geometry">
            <mxPoint x="1010" y="1430" as="targetPoint" />
          </mxGeometry>
        </mxCell>
        <mxCell id="nDfJRBq8Fqmn5yMmQ9gc-57" value="是" style="edgeLabel;html=1;align=center;verticalAlign=middle;resizable=0;points=[];" vertex="1" connectable="0" parent="nDfJRBq8Fqmn5yMmQ9gc-56">
          <mxGeometry x="-0.8306" y="-1" relative="1" as="geometry">
            <mxPoint as="offset" />
          </mxGeometry>
        </mxCell>
        <mxCell id="nDfJRBq8Fqmn5yMmQ9gc-81" value="" style="edgeStyle=orthogonalEdgeStyle;rounded=0;orthogonalLoop=1;jettySize=auto;html=1;" edge="1" parent="1" source="nDfJRBq8Fqmn5yMmQ9gc-52" target="nDfJRBq8Fqmn5yMmQ9gc-77">
          <mxGeometry relative="1" as="geometry" />
        </mxCell>
        <mxCell id="nDfJRBq8Fqmn5yMmQ9gc-82" value="否" style="edgeLabel;html=1;align=center;verticalAlign=middle;resizable=0;points=[];" vertex="1" connectable="0" parent="nDfJRBq8Fqmn5yMmQ9gc-81">
          <mxGeometry x="0.24" y="-1" relative="1" as="geometry">
            <mxPoint as="offset" />
          </mxGeometry>
        </mxCell>
        <mxCell id="nDfJRBq8Fqmn5yMmQ9gc-52" value="用户是&lt;br&gt;主供应商" style="rhombus;whiteSpace=wrap;html=1;" vertex="1" parent="1">
          <mxGeometry x="800" y="1210" width="80" height="80" as="geometry" />
        </mxCell>
        <mxCell id="nDfJRBq8Fqmn5yMmQ9gc-63" value="" style="edgeStyle=orthogonalEdgeStyle;rounded=0;orthogonalLoop=1;jettySize=auto;html=1;" edge="1" parent="1" source="nDfJRBq8Fqmn5yMmQ9gc-58" target="nDfJRBq8Fqmn5yMmQ9gc-61">
          <mxGeometry relative="1" as="geometry" />
        </mxCell>
        <mxCell id="nDfJRBq8Fqmn5yMmQ9gc-64" value="是" style="edgeLabel;html=1;align=center;verticalAlign=middle;resizable=0;points=[];" vertex="1" connectable="0" parent="nDfJRBq8Fqmn5yMmQ9gc-63">
          <mxGeometry x="-0.7333" relative="1" as="geometry">
            <mxPoint as="offset" />
          </mxGeometry>
        </mxCell>
        <mxCell id="nDfJRBq8Fqmn5yMmQ9gc-72" value="" style="edgeStyle=orthogonalEdgeStyle;rounded=0;orthogonalLoop=1;jettySize=auto;html=1;" edge="1" parent="1" source="nDfJRBq8Fqmn5yMmQ9gc-58">
          <mxGeometry relative="1" as="geometry">
            <mxPoint x="970" y="1030" as="targetPoint" />
          </mxGeometry>
        </mxCell>
        <mxCell id="nDfJRBq8Fqmn5yMmQ9gc-73" value="否 验证失败" style="edgeLabel;html=1;align=center;verticalAlign=middle;resizable=0;points=[];" vertex="1" connectable="0" parent="nDfJRBq8Fqmn5yMmQ9gc-72">
          <mxGeometry x="-0.0374" y="-2" relative="1" as="geometry">
            <mxPoint x="-4" as="offset" />
          </mxGeometry>
        </mxCell>
        <mxCell id="nDfJRBq8Fqmn5yMmQ9gc-58" value="用户是商&lt;br&gt;品供应商" style="rhombus;whiteSpace=wrap;html=1;" vertex="1" parent="1">
          <mxGeometry x="800" y="990" width="80" height="80" as="geometry" />
        </mxCell>
        <mxCell id="nDfJRBq8Fqmn5yMmQ9gc-65" value="" style="edgeStyle=orthogonalEdgeStyle;rounded=0;orthogonalLoop=1;jettySize=auto;html=1;" edge="1" parent="1" source="nDfJRBq8Fqmn5yMmQ9gc-61" target="nDfJRBq8Fqmn5yMmQ9gc-52">
          <mxGeometry relative="1" as="geometry" />
        </mxCell>
        <mxCell id="nDfJRBq8Fqmn5yMmQ9gc-66" value="否" style="edgeLabel;html=1;align=center;verticalAlign=middle;resizable=0;points=[];" vertex="1" connectable="0" parent="nDfJRBq8Fqmn5yMmQ9gc-65">
          <mxGeometry x="0.3467" y="-1" relative="1" as="geometry">
            <mxPoint as="offset" />
          </mxGeometry>
        </mxCell>
        <mxCell id="nDfJRBq8Fqmn5yMmQ9gc-68" value="" style="edgeStyle=orthogonalEdgeStyle;rounded=0;orthogonalLoop=1;jettySize=auto;html=1;" edge="1" parent="1" source="nDfJRBq8Fqmn5yMmQ9gc-61">
          <mxGeometry relative="1" as="geometry">
            <mxPoint x="960" y="1140" as="targetPoint" />
          </mxGeometry>
        </mxCell>
        <mxCell id="nDfJRBq8Fqmn5yMmQ9gc-70" value="是 验证失败" style="edgeLabel;html=1;align=center;verticalAlign=middle;resizable=0;points=[];" vertex="1" connectable="0" parent="nDfJRBq8Fqmn5yMmQ9gc-68">
          <mxGeometry x="-0.3292" y="-2" relative="1" as="geometry">
            <mxPoint x="8" as="offset" />
          </mxGeometry>
        </mxCell>
        <mxCell id="nDfJRBq8Fqmn5yMmQ9gc-61" value="用户是商&lt;br&gt;品经销商" style="rhombus;whiteSpace=wrap;html=1;" vertex="1" parent="1">
          <mxGeometry x="800" y="1100" width="80" height="80" as="geometry" />
        </mxCell>
        <mxCell id="nDfJRBq8Fqmn5yMmQ9gc-74" value="" style="shape=waypoint;sketch=0;size=6;pointerEvents=1;points=[];fillColor=default;resizable=0;rotatable=0;perimeter=centerPerimeter;snapToPoint=1;" vertex="1" parent="1">
          <mxGeometry x="790" y="1240" width="20" height="20" as="geometry" />
        </mxCell>
        <mxCell id="nDfJRBq8Fqmn5yMmQ9gc-79" value="" style="edgeStyle=orthogonalEdgeStyle;rounded=0;orthogonalLoop=1;jettySize=auto;html=1;" edge="1" parent="1" source="nDfJRBq8Fqmn5yMmQ9gc-77">
          <mxGeometry relative="1" as="geometry">
            <mxPoint x="970" y="1360" as="targetPoint" />
          </mxGeometry>
        </mxCell>
        <mxCell id="nDfJRBq8Fqmn5yMmQ9gc-80" value="否 校验失败" style="edgeLabel;html=1;align=center;verticalAlign=middle;resizable=0;points=[];" vertex="1" connectable="0" parent="nDfJRBq8Fqmn5yMmQ9gc-79">
          <mxGeometry x="-0.325" y="-1" relative="1" as="geometry">
            <mxPoint x="7" as="offset" />
          </mxGeometry>
        </mxCell>
        <mxCell id="nDfJRBq8Fqmn5yMmQ9gc-136" value="" style="edgeStyle=orthogonalEdgeStyle;rounded=0;orthogonalLoop=1;jettySize=auto;html=1;" edge="1" parent="1" source="nDfJRBq8Fqmn5yMmQ9gc-77">
          <mxGeometry relative="1" as="geometry">
            <mxPoint x="1035.62" y="1470" as="targetPoint" />
            <Array as="points">
              <mxPoint x="840" y="1430" />
              <mxPoint x="1036" y="1430" />
            </Array>
          </mxGeometry>
        </mxCell>
        <mxCell id="nDfJRBq8Fqmn5yMmQ9gc-77" value="用户是&lt;br&gt;从供应商" style="rhombus;whiteSpace=wrap;html=1;" vertex="1" parent="1">
          <mxGeometry x="800" y="1320" width="80" height="80" as="geometry" />
        </mxCell>
        <mxCell id="nDfJRBq8Fqmn5yMmQ9gc-132" value="" style="edgeStyle=orthogonalEdgeStyle;rounded=0;orthogonalLoop=1;jettySize=auto;html=1;" edge="1" parent="1" source="nDfJRBq8Fqmn5yMmQ9gc-83" target="nDfJRBq8Fqmn5yMmQ9gc-84">
          <mxGeometry relative="1" as="geometry" />
        </mxCell>
        <mxCell id="nDfJRBq8Fqmn5yMmQ9gc-83" value="类目信息和类目佣金校验" style="rounded=1;whiteSpace=wrap;html=1;" vertex="1" parent="1">
          <mxGeometry x="975.62" y="900" width="120" height="60" as="geometry" />
        </mxCell>
        <mxCell id="nDfJRBq8Fqmn5yMmQ9gc-134" value="" style="edgeStyle=orthogonalEdgeStyle;rounded=0;orthogonalLoop=1;jettySize=auto;html=1;" edge="1" parent="1">
          <mxGeometry relative="1" as="geometry">
            <mxPoint x="1036" y="1470" as="sourcePoint" />
            <mxPoint x="1035.62" y="1470" as="targetPoint" />
          </mxGeometry>
        </mxCell>
        <mxCell id="nDfJRBq8Fqmn5yMmQ9gc-84" value="淘客黑码商品校验" style="rounded=1;whiteSpace=wrap;html=1;" vertex="1" parent="1">
          <mxGeometry x="976" y="1010" width="120" height="60" as="geometry" />
        </mxCell>
        <mxCell id="nDfJRBq8Fqmn5yMmQ9gc-142" value="" style="edgeStyle=orthogonalEdgeStyle;rounded=0;orthogonalLoop=1;jettySize=auto;html=1;" edge="1" parent="1" source="nDfJRBq8Fqmn5yMmQ9gc-85">
          <mxGeometry relative="1" as="geometry">
            <mxPoint x="1036" y="1470" as="targetPoint" />
            <Array as="points">
              <mxPoint x="1190" y="1430" />
              <mxPoint x="1036" y="1430" />
            </Array>
          </mxGeometry>
        </mxCell>
        <mxCell id="nDfJRBq8Fqmn5yMmQ9gc-85" value="营销计划总量校验" style="rounded=1;whiteSpace=wrap;html=1;" vertex="1" parent="1">
          <mxGeometry x="1130" y="900" width="120" height="60" as="geometry" />
        </mxCell>
        <mxCell id="nDfJRBq8Fqmn5yMmQ9gc-150" value="" style="edgeStyle=orthogonalEdgeStyle;rounded=0;orthogonalLoop=1;jettySize=auto;html=1;" edge="1" parent="1" source="nDfJRBq8Fqmn5yMmQ9gc-86">
          <mxGeometry relative="1" as="geometry">
            <mxPoint x="1035.62" y="1470" as="targetPoint" />
            <Array as="points">
              <mxPoint x="1350" y="1430" />
              <mxPoint x="1036" y="1430" />
            </Array>
          </mxGeometry>
        </mxCell>
        <mxCell id="nDfJRBq8Fqmn5yMmQ9gc-86" value="营销计划推广时间校验" style="rounded=1;whiteSpace=wrap;html=1;" vertex="1" parent="1">
          <mxGeometry x="1290" y="900" width="120" height="60" as="geometry" />
        </mxCell>
        <mxCell id="nDfJRBq8Fqmn5yMmQ9gc-93" value="" style="edgeStyle=orthogonalEdgeStyle;rounded=0;orthogonalLoop=1;jettySize=auto;html=1;" edge="1" parent="1" source="nDfJRBq8Fqmn5yMmQ9gc-89" target="nDfJRBq8Fqmn5yMmQ9gc-90">
          <mxGeometry relative="1" as="geometry" />
        </mxCell>
        <mxCell id="nDfJRBq8Fqmn5yMmQ9gc-94" value="否" style="edgeLabel;html=1;align=center;verticalAlign=middle;resizable=0;points=[];" vertex="1" connectable="0" parent="nDfJRBq8Fqmn5yMmQ9gc-93">
          <mxGeometry x="-0.25" y="1" relative="1" as="geometry">
            <mxPoint as="offset" />
          </mxGeometry>
        </mxCell>
        <mxCell id="nDfJRBq8Fqmn5yMmQ9gc-89" value="用户为有&lt;br&gt;权限小二" style="rhombus;whiteSpace=wrap;html=1;" vertex="1" parent="1">
          <mxGeometry x="1500" y="890" width="80" height="80" as="geometry" />
        </mxCell>
        <mxCell id="nDfJRBq8Fqmn5yMmQ9gc-95" value="" style="edgeStyle=orthogonalEdgeStyle;rounded=0;orthogonalLoop=1;jettySize=auto;html=1;" edge="1" parent="1" source="nDfJRBq8Fqmn5yMmQ9gc-90" target="nDfJRBq8Fqmn5yMmQ9gc-92">
          <mxGeometry relative="1" as="geometry" />
        </mxCell>
        <mxCell id="nDfJRBq8Fqmn5yMmQ9gc-96" value="否" style="edgeLabel;html=1;align=center;verticalAlign=middle;resizable=0;points=[];" vertex="1" connectable="0" parent="nDfJRBq8Fqmn5yMmQ9gc-95">
          <mxGeometry x="0.36" y="1" relative="1" as="geometry">
            <mxPoint as="offset" />
          </mxGeometry>
        </mxCell>
        <mxCell id="nDfJRBq8Fqmn5yMmQ9gc-90" value="用户为&lt;br&gt;经销商" style="rhombus;whiteSpace=wrap;html=1;" vertex="1" parent="1">
          <mxGeometry x="1500" y="1010" width="80" height="80" as="geometry" />
        </mxCell>
        <mxCell id="nDfJRBq8Fqmn5yMmQ9gc-98" value="" style="edgeStyle=orthogonalEdgeStyle;rounded=0;orthogonalLoop=1;jettySize=auto;html=1;" edge="1" parent="1" source="nDfJRBq8Fqmn5yMmQ9gc-92" target="nDfJRBq8Fqmn5yMmQ9gc-97">
          <mxGeometry relative="1" as="geometry" />
        </mxCell>
        <mxCell id="nDfJRBq8Fqmn5yMmQ9gc-99" value="是" style="edgeLabel;html=1;align=center;verticalAlign=middle;resizable=0;points=[];" vertex="1" connectable="0" parent="nDfJRBq8Fqmn5yMmQ9gc-98">
          <mxGeometry x="-0.2" y="-1" relative="1" as="geometry">
            <mxPoint as="offset" />
          </mxGeometry>
        </mxCell>
        <mxCell id="nDfJRBq8Fqmn5yMmQ9gc-101" value="" style="edgeStyle=orthogonalEdgeStyle;rounded=0;orthogonalLoop=1;jettySize=auto;html=1;entryX=0.5;entryY=0;entryDx=0;entryDy=0;" edge="1" parent="1" source="nDfJRBq8Fqmn5yMmQ9gc-92" target="nDfJRBq8Fqmn5yMmQ9gc-153">
          <mxGeometry relative="1" as="geometry">
            <mxPoint x="1710" y="1260" as="targetPoint" />
          </mxGeometry>
        </mxCell>
        <mxCell id="nDfJRBq8Fqmn5yMmQ9gc-152" value="否" style="edgeLabel;html=1;align=center;verticalAlign=middle;resizable=0;points=[];" vertex="1" connectable="0" parent="nDfJRBq8Fqmn5yMmQ9gc-101">
          <mxGeometry x="-0.6703" y="-3" relative="1" as="geometry">
            <mxPoint as="offset" />
          </mxGeometry>
        </mxCell>
        <mxCell id="nDfJRBq8Fqmn5yMmQ9gc-92" value="该商品包含&lt;br&gt;子供应商" style="rhombus;whiteSpace=wrap;html=1;" vertex="1" parent="1">
          <mxGeometry x="1490" y="1120" width="100" height="90" as="geometry" />
        </mxCell>
        <mxCell id="nDfJRBq8Fqmn5yMmQ9gc-148" value="" style="edgeStyle=orthogonalEdgeStyle;rounded=0;orthogonalLoop=1;jettySize=auto;html=1;" edge="1" parent="1" source="nDfJRBq8Fqmn5yMmQ9gc-97">
          <mxGeometry relative="1" as="geometry">
            <mxPoint x="1036" y="1470" as="targetPoint" />
            <Array as="points">
              <mxPoint x="1540" y="1430" />
              <mxPoint x="1036" y="1430" />
            </Array>
          </mxGeometry>
        </mxCell>
        <mxCell id="nDfJRBq8Fqmn5yMmQ9gc-97" value="状态为待&lt;br&gt;子供应商审核中" style="rounded=1;whiteSpace=wrap;html=1;" vertex="1" parent="1">
          <mxGeometry x="1480" y="1250" width="120" height="60" as="geometry" />
        </mxCell>
        <mxCell id="nDfJRBq8Fqmn5yMmQ9gc-103" value="" style="shape=waypoint;sketch=0;size=6;pointerEvents=1;points=[];fillColor=default;resizable=0;rotatable=0;perimeter=centerPerimeter;snapToPoint=1;" vertex="1" parent="1">
          <mxGeometry x="1168.74" y="203" width="20" height="20" as="geometry" />
        </mxCell>
        <mxCell id="nDfJRBq8Fqmn5yMmQ9gc-111" value="" style="edgeStyle=orthogonalEdgeStyle;rounded=0;orthogonalLoop=1;jettySize=auto;html=1;" edge="1" parent="1" source="nDfJRBq8Fqmn5yMmQ9gc-108" target="nDfJRBq8Fqmn5yMmQ9gc-11">
          <mxGeometry relative="1" as="geometry" />
        </mxCell>
        <mxCell id="nDfJRBq8Fqmn5yMmQ9gc-108" value="根据入参是否带主键ID判断是创建还是更新" style="rounded=1;whiteSpace=wrap;html=1;" vertex="1" parent="1">
          <mxGeometry x="954.74" y="418" width="129.99" height="60" as="geometry" />
        </mxCell>
        <mxCell id="nDfJRBq8Fqmn5yMmQ9gc-140" value="" style="edgeStyle=orthogonalEdgeStyle;rounded=0;orthogonalLoop=1;jettySize=auto;html=1;" edge="1" parent="1">
          <mxGeometry relative="1" as="geometry">
            <mxPoint x="1036" y="1470" as="sourcePoint" />
            <mxPoint x="1036" y="1470" as="targetPoint" />
          </mxGeometry>
        </mxCell>
        <mxCell id="nDfJRBq8Fqmn5yMmQ9gc-143" value="" style="edgeStyle=orthogonalEdgeStyle;rounded=0;orthogonalLoop=1;jettySize=auto;html=1;" edge="1" parent="1">
          <mxGeometry relative="1" as="geometry">
            <mxPoint x="1035.62" y="1470" as="sourcePoint" />
            <mxPoint x="1036" y="1470" as="targetPoint" />
          </mxGeometry>
        </mxCell>
        <mxCell id="nDfJRBq8Fqmn5yMmQ9gc-151" value="" style="edgeStyle=orthogonalEdgeStyle;rounded=0;orthogonalLoop=1;jettySize=auto;html=1;" edge="1" parent="1" source="nDfJRBq8Fqmn5yMmQ9gc-84">
          <mxGeometry relative="1" as="geometry">
            <mxPoint x="1036" y="1070" as="sourcePoint" />
            <mxPoint x="1035.62" y="1470" as="targetPoint" />
          </mxGeometry>
        </mxCell>
        <mxCell id="nDfJRBq8Fqmn5yMmQ9gc-156" value="" style="edgeStyle=orthogonalEdgeStyle;rounded=0;orthogonalLoop=1;jettySize=auto;html=1;" edge="1" parent="1" source="nDfJRBq8Fqmn5yMmQ9gc-153">
          <mxGeometry relative="1" as="geometry">
            <mxPoint x="1035.62" y="1470" as="targetPoint" />
            <Array as="points">
              <mxPoint x="1710" y="1430" />
              <mxPoint x="1036" y="1430" />
            </Array>
          </mxGeometry>
        </mxCell>
        <mxCell id="nDfJRBq8Fqmn5yMmQ9gc-153" value="单供应商状态为&lt;br&gt;审核通过" style="rounded=1;whiteSpace=wrap;html=1;" vertex="1" parent="1">
          <mxGeometry x="1650" y="1250" width="120" height="60" as="geometry" />
        </mxCell>
        <mxCell id="nDfJRBq8Fqmn5yMmQ9gc-159" value="" style="edgeStyle=orthogonalEdgeStyle;rounded=0;orthogonalLoop=1;jettySize=auto;html=1;" edge="1" parent="1" source="nDfJRBq8Fqmn5yMmQ9gc-158" target="nDfJRBq8Fqmn5yMmQ9gc-1">
          <mxGeometry relative="1" as="geometry" />
        </mxCell>
        <mxCell id="nDfJRBq8Fqmn5yMmQ9gc-158" value="&lt;font style=&quot;font-size: 14px;&quot;&gt;提报单品营销&lt;/font&gt;" style="rounded=0;whiteSpace=wrap;html=1;" vertex="1" parent="1">
          <mxGeometry x="968.99" y="110" width="100" height="40" as="geometry" />
        </mxCell>
        <mxCell id="nDfJRBq8Fqmn5yMmQ9gc-166" value="" style="edgeStyle=orthogonalEdgeStyle;rounded=0;orthogonalLoop=1;jettySize=auto;html=1;" edge="1" parent="1" source="nDfJRBq8Fqmn5yMmQ9gc-160" target="nDfJRBq8Fqmn5yMmQ9gc-163">
          <mxGeometry relative="1" as="geometry" />
        </mxCell>
        <mxCell id="nDfJRBq8Fqmn5yMmQ9gc-160" value="写入营销计划计划到阿里妈妈" style="rounded=1;whiteSpace=wrap;html=1;" vertex="1" parent="1">
          <mxGeometry x="945.75" y="1540" width="184.25" height="50" as="geometry" />
        </mxCell>
        <mxCell id="nDfJRBq8Fqmn5yMmQ9gc-168" value="" style="edgeStyle=orthogonalEdgeStyle;rounded=0;orthogonalLoop=1;jettySize=auto;html=1;" edge="1" parent="1" source="nDfJRBq8Fqmn5yMmQ9gc-163" target="nDfJRBq8Fqmn5yMmQ9gc-164">
          <mxGeometry relative="1" as="geometry" />
        </mxCell>
        <mxCell id="nDfJRBq8Fqmn5yMmQ9gc-163" value="妈妈侧创建成功后更新DB" style="rounded=1;whiteSpace=wrap;html=1;" vertex="1" parent="1">
          <mxGeometry x="965.75" y="1620" width="144.25" height="40" as="geometry" />
        </mxCell>
        <mxCell id="nDfJRBq8Fqmn5yMmQ9gc-164" value="发送猫U消息" style="rounded=1;whiteSpace=wrap;html=1;" vertex="1" parent="1">
          <mxGeometry x="980.62" y="1690" width="114.25" height="40" as="geometry" />
        </mxCell>
        <mxCell id="nDfJRBq8Fqmn5yMmQ9gc-169" value="&lt;font style=&quot;font-size: 24px;&quot;&gt;数据验证&lt;/font&gt;" style="text;align=center;fontStyle=1;verticalAlign=middle;spacingLeft=3;spacingRight=3;strokeColor=none;rotatable=0;points=[[0,0.5],[1,0.5]];portConstraint=eastwest;html=1;" vertex="1" parent="1">
          <mxGeometry x="520" y="644" width="80" height="26" as="geometry" />
        </mxCell>
      </root>
    </mxGraphModel>
  </diagram>
</mxfile>
